<?xml version="1.0" encoding="UTF-8" standalone="no"?>
<!-- Created with Inkscape (http://www.inkscape.org/) -->

<svg
   xmlns:dc="http://purl.org/dc/elements/1.1/"
   xmlns:cc="http://creativecommons.org/ns#"
   xmlns:rdf="http://www.w3.org/1999/02/22-rdf-syntax-ns#"
   xmlns:svg="http://www.w3.org/2000/svg"
   xmlns="http://www.w3.org/2000/svg"
   xmlns:sodipodi="http://sodipodi.sourceforge.net/DTD/sodipodi-0.dtd"
   xmlns:inkscape="http://www.inkscape.org/namespaces/inkscape"
   id="svg3163"
   version="1.1"
   inkscape:version="0.48.4 r9939"
   width="879"
   height="663"
   sodipodi:docname="poly2.png">
  <metadata
     id="metadata3169">
    <rdf:RDF>
      <cc:Work
         rdf:about="">
        <dc:format>image/svg+xml</dc:format>
        <dc:type
           rdf:resource="http://purl.org/dc/dcmitype/StillImage" />
        <dc:title></dc:title>
      </cc:Work>
    </rdf:RDF>
  </metadata>
  <defs
     id="defs3167" />
  <sodipodi:namedview
     pagecolor="#ffffff"
     bordercolor="#666666"
     borderopacity="1"
     objecttolerance="10"
     gridtolerance="10"
     guidetolerance="10"
     inkscape:pageopacity="0"
     inkscape:pageshadow="2"
     inkscape:window-width="990"
     inkscape:window-height="626"
     id="namedview3165"
     showgrid="false"
     inkscape:zoom="0.59094932"
     inkscape:cx="439.5"
     inkscape:cy="331.5"
     inkscape:window-x="53"
     inkscape:window-y="24"
     inkscape:window-maximized="0"
     inkscape:current-layer="svg3163" />
  <g
     id="g3173">
    <path
       style="fill:#ffffff"
       d="M 0,331.5 0,0 439.5,0 879,0 879,331.5 879,663 439.5,663 0,663 0,331.5 z"
       id="path3177"
       inkscape:connector-curvature="0" />
    <path
       style="fill:#000000"
       d="m 665,661.5 c 0,-0.825 -0.45,-1.5 -1,-1.5 -0.55,0 -1,-0.675 -1,-1.5 0,-1.11111 -1.16667,-1.5 -4.5,-1.5 -3.33333,0 -4.5,-0.38889 -4.5,-1.5 0,-0.825 -0.45,-1.5 -1,-1.5 -0.55,0 -1,-1.8 -1,-4 0,-2.88889 -0.41667,-4 -1.5,-4 -0.93333,0 -1.5,-0.94444 -1.5,-2.5 0,-1.55556 -0.56667,-2.5 -1.5,-2.5 -1.32837,0 -1.5,-23.05556 -1.5,-201.5 0,-178.44444 -0.17163,-201.5 -1.5,-201.5 -1,0 -1.5,-1 -1.5,-3 0,-2.53333 -0.38889,-3 -2.5,-3 -1.55556,0 -2.5,0.56667 -2.5,1.5 0,0.825 -0.675,1.5 -1.5,1.5 -0.825,0 -1.5,0.675 -1.5,1.5 0,0.825 -0.675,1.5 -1.5,1.5 -1.08333,0 -1.5,1.11111 -1.5,4 0,2.2 -0.45,4 -1,4 -0.55,0 -1,1.8 -1,4 0,2.88889 -0.41667,4 -1.5,4 -1.11111,0 -1.5,1.16667 -1.5,4.5 0,3.33333 -0.38889,4.5 -1.5,4.5 -1.08333,0 -1.5,1.11111 -1.5,4 0,2.88889 -0.41667,4 -1.5,4 -1.08333,0 -1.5,1.11111 -1.5,4 0,2.2 -0.45,4 -1,4 -0.55,0 -1,1.8 -1,4 0,2.88889 -0.41667,4 -1.5,4 -1.08333,0 -1.5,1.11111 -1.5,4 0,2.88889 -0.41667,4 -1.5,4 -1.11111,0 -1.5,1.16667 -1.5,4.5 0,3.33333 -0.38889,4.5 -1.5,4.5 -1.08333,0 -1.5,1.11111 -1.5,4 0,2.2 -0.45,4 -1,4 -0.55,0 -1,1.8 -1,4 0,2.88889 -0.41667,4 -1.5,4 -1,0 -1.5,1 -1.5,3 0,2 -0.5,3 -1.5,3 -1.08333,0 -1.5,1.11111 -1.5,4 0,2.2 -0.45,4 -1,4 -0.55,0 -1,0.675 -1,1.5 0,0.825 -0.675,1.5 -1.5,1.5 -0.93333,0 -1.5,0.94444 -1.5,2.5 0,1.55556 -0.56667,2.5 -1.5,2.5 -0.93333,0 -1.5,0.94444 -1.5,2.5 0,1.55556 -0.56667,2.5 -1.5,2.5 -0.825,0 -1.5,0.675 -1.5,1.5 0,0.825 -0.45,1.5 -1,1.5 -0.55,0 -1,1.35 -1,3 0,2 -0.5,3 -1.5,3 -0.825,0 -1.5,0.45 -1.5,1 0,0.55 -0.675,1 -1.5,1 -0.825,0 -1.5,0.675 -1.5,1.5 0,0.93333 -0.94444,1.5 -2.5,1.5 -1.55556,0 -2.5,0.56667 -2.5,1.5 0,1.19048 -1.44444,1.5 -7,1.5 -5.55556,0 -7,-0.30952 -7,-1.5 0,-1.08333 -1.11111,-1.5 -4,-1.5 -2.88889,0 -4,-0.41667 -4,-1.5 0,-0.825 -0.675,-1.5 -1.5,-1.5 -0.825,0 -1.5,-0.45 -1.5,-1 0,-0.55 -0.675,-1 -1.5,-1 -1,0 -1.5,-1 -1.5,-3 0,-2 -0.5,-3 -1.5,-3 -0.825,0 -1.5,-0.675 -1.5,-1.5 0,-0.825 -0.45,-1.5 -1,-1.5 -0.55,0 -1,-1.125 -1,-2.5 0,-1.55556 -0.56667,-2.5 -1.5,-2.5 -0.93333,0 -1.5,-0.94444 -1.5,-2.5 0,-1.55556 -0.56667,-2.5 -1.5,-2.5 -0.825,0 -1.5,-0.675 -1.5,-1.5 0,-0.825 -0.45,-1.5 -1,-1.5 -0.55,0 -1,-1.8 -1,-4 0,-2.88889 -0.41667,-4 -1.5,-4 -1,0 -1.5,-1 -1.5,-3 0,-2 -0.5,-3 -1.5,-3 -1.08333,0 -1.5,-1.11111 -1.5,-4 0,-2.88889 -0.41667,-4 -1.5,-4 -1.08333,0 -1.5,-1.11111 -1.5,-4 0,-2.2 -0.45,-4 -1,-4 -0.55,0 -1,-2.025 -1,-4.5 0,-3.33333 -0.38889,-4.5 -1.5,-4.5 -1.08333,0 -1.5,-1.11111 -1.5,-4 0,-2.88889 -0.41667,-4 -1.5,-4 -1.08333,0 -1.5,-1.11111 -1.5,-4 0,-2.88889 -0.41667,-4 -1.5,-4 -1.08333,0 -1.5,-1.11111 -1.5,-4 0,-2.2 -0.45,-4 -1,-4 -0.55,0 -1,-1.8 -1,-4 0,-2.88889 -0.41667,-4 -1.5,-4 -1.11111,0 -1.5,-1.16667 -1.5,-4.5 0,-3.33333 -0.38889,-4.5 -1.5,-4.5 -1.08333,0 -1.5,-1.11111 -1.5,-4 0,-2.88889 -0.41667,-4 -1.5,-4 -1.08333,0 -1.5,-1.11111 -1.5,-4 0,-2.2 -0.45,-4 -1,-4 -0.55,0 -1,-0.675 -1,-1.5 0,-0.825 -0.675,-1.5 -1.5,-1.5 -0.825,0 -1.5,-0.675 -1.5,-1.5 0,-1 -1,-1.5 -3,-1.5 -2.66667,0 -3,0.33333 -3,3 0,1.65 -0.45,3 -1,3 -0.66333,0 -1,67.33333 -1,200 0,177.11111 -0.17167,200 -1.5,200 -1.08333,0 -1.5,1.11111 -1.5,4 0,2.88889 -0.41667,4 -1.5,4 -0.825,0 -1.5,0.675 -1.5,1.5 0,0.825 -0.675,1.5 -1.5,1.5 -0.825,0 -1.5,0.48214 -1.5,1.07143 C 484,651.45591 481.45591,654 480.07143,654 479.48214,654 479,654.675 479,655.5 c 0,0.93333 -0.94444,1.5 -2.5,1.5 -1.55556,0 -2.5,0.56667 -2.5,1.5 0,1.21569 -1.61111,1.5 -8.5,1.5 -6.88889,0 -8.5,-0.28431 -8.5,-1.5 0,-1.08333 -1.11111,-1.5 -4,-1.5 -2.88889,0 -4,-0.41667 -4,-1.5 0,-0.825 -0.675,-1.5 -1.5,-1.5 -0.825,0 -1.5,-0.45 -1.5,-1 0,-0.55 -0.675,-1 -1.5,-1 -1,0 -1.5,-1 -1.5,-3 0,-1.65 -0.45,-3 -1,-3 -0.55,0 -1,-1.125 -1,-2.5 0,-1.55556 -0.56667,-2.5 -1.5,-2.5 -1.32348,0 -1.5,-11.94444 -1.5,-101.5 0,-89.55556 -0.17652,-101.5 -1.5,-101.5 -0.825,0 -1.5,-0.675 -1.5,-1.5 0,-1.08333 -1.11111,-1.5 -4,-1.5 l -4,0 0,103 c 0,90.88889 -0.17638,103 -1.5,103 -0.93333,0 -1.5,0.94444 -1.5,2.5 0,1.55556 -0.56667,2.5 -1.5,2.5 -0.94444,0 -1.5,0.95238 -1.5,2.57143 C 421,651.20835 418.97973,654 417.07143,654 416.48214,654 416,654.675 416,655.5 c 0,1 -1,1.5 -3,1.5 -2,0 -3,0.5 -3,1.5 0,1.2381 -1.83333,1.5 -10.5,1.5 -8.66667,0 -10.5,-0.2619 -10.5,-1.5 0,-1.11111 -1.16667,-1.5 -4.5,-1.5 -3.33333,0 -4.5,-0.38889 -4.5,-1.5 0,-0.825 -0.45,-1.5 -1,-1.5 -0.55,0 -1,-1.125 -1,-2.5 0,-1.55556 -0.56667,-2.5 -1.5,-2.5 -1,0 -1.5,-1 -1.5,-3 0,-2 -0.5,-3 -1.5,-3 -1.32385,0 -1.5,-12.38889 -1.5,-105.5 0,-93.11111 -0.17615,-105.5 -1.5,-105.5 -0.825,0 -1.5,-0.45 -1.5,-1 0,-0.6455 -11.16667,-1 -31.5,-1 l -31.5,0 0,-3 c 0,-2 0.5,-3 1.5,-3 1.08333,0 1.5,-1.11111 1.5,-4 0,-2.88889 0.41667,-4 1.5,-4 1.08333,0 1.5,-1.11111 1.5,-4 0,-2.88889 0.41667,-4 1.5,-4 1.08333,0 1.5,-1.11111 1.5,-4 0,-2.2 0.45,-4 1,-4 0.55,0 1,-2.025 1,-4.5 0,-3.33333 0.38889,-4.5 1.5,-4.5 1.08333,0 1.5,-1.11111 1.5,-4 0,-2.88889 0.41667,-4 1.5,-4 1.08333,0 1.5,-1.11111 1.5,-4 0,-2.88889 0.41667,-4 1.5,-4 1.08333,0 1.5,-1.11111 1.5,-4 0,-2.2 0.45,-4 1,-4 0.55,0 1,-2.025 1,-4.5 0,-3.33333 0.38889,-4.5 1.5,-4.5 1.08333,0 1.5,-1.11111 1.5,-4 0,-2.88889 0.41667,-4 1.5,-4 1.15152,0 1.5,-1.27778 1.5,-5.5 0,-4.22222 0.34848,-5.5 1.5,-5.5 1.08333,0 1.5,-1.11111 1.5,-4 0,-2.2 0.45,-4 1,-4 0.55,0 1,-1.8 1,-4 0,-2.88889 0.41667,-4 1.5,-4 1.08333,0 1.5,-1.11111 1.5,-4 0,-2.88889 0.41667,-4 1.5,-4 1.11111,0 1.5,-1.16667 1.5,-4.5 0,-2.475 0.45,-4.5 1,-4.5 0.55,0 1,-1.8 1,-4 0,-2.88889 0.41667,-4 1.5,-4 1.08333,0 1.5,-1.11111 1.5,-4 0,-2.88889 0.41667,-4 1.5,-4 1.15152,0 1.5,-1.27778 1.5,-5.5 0,-4.22222 0.34848,-5.5 1.5,-5.5 1.08333,0 1.5,-1.11111 1.5,-4 0,-2.2 0.45,-4 1,-4 0.55,0 1,-1.8 1,-4 0,-2.88889 0.41667,-4 1.5,-4 1.15152,0 1.5,-1.27778 1.5,-5.5 0,-4.22222 0.34848,-5.5 1.5,-5.5 1,0 1.5,-1 1.5,-3 0,-2 0.5,-3 1.5,-3 1.15152,0 1.5,-1.27778 1.5,-5.5 0,-5.44444 -0.0303,-5.5 -3,-5.5 -2,0 -3,0.5 -3,1.5 0,0.825 -0.675,1.5 -1.5,1.5 -0.825,0 -1.5,0.675 -1.5,1.5 0,0.825 -0.45,1.5 -1,1.5 -0.55,0 -1,1.8 -1,4 0,2.88889 -0.41667,4 -1.5,4 -1.08333,0 -1.5,1.11111 -1.5,4 0,2.88889 -0.41667,4 -1.5,4 -1.08333,0 -1.5,1.11111 -1.5,4 0,2.88889 -0.41667,4 -1.5,4 -1.08333,0 -1.5,1.11111 -1.5,4 0,2.2 -0.45,4 -1,4 -0.55,0 -1,2.025 -1,4.5 0,3.33333 -0.38889,4.5 -1.5,4.5 -1.08333,0 -1.5,1.11111 -1.5,4 0,2.88889 -0.41667,4 -1.5,4 -1.08333,0 -1.5,1.11111 -1.5,4 0,2.2 -0.45,4 -1,4 -0.55,0 -1,1.8 -1,4 0,2.88889 -0.41667,4 -1.5,4 -1.11111,0 -1.5,1.16667 -1.5,4.5 0,3.33333 -0.38889,4.5 -1.5,4.5 -1.08333,0 -1.5,1.11111 -1.5,4 0,2.88889 -0.41667,4 -1.5,4 -0.93333,0 -1.5,0.94444 -1.5,2.5 0,1.375 -0.45,2.5 -1,2.5 -0.55,0 -1,2.025 -1,4.5 0,3.33333 -0.38889,4.5 -1.5,4.5 -0.825,0 -1.5,0.45 -1.5,1 0,0.55 -0.675,1 -1.5,1 -1,0 -1.5,1 -1.5,3 0,2 -0.5,3 -1.5,3 -0.93333,0 -1.5,0.94444 -1.5,2.5 0,1.375 -0.45,2.5 -1,2.5 -0.55,0 -1,0.675 -1,1.5 0,0.825 -0.675,1.5 -1.5,1.5 -0.93333,0 -1.5,0.94444 -1.5,2.5 0,1.55556 -0.56667,2.5 -1.5,2.5 -0.825,0 -1.5,0.675 -1.5,1.5 0,0.93333 -0.94444,1.5 -2.5,1.5 -1.55556,0 -2.5,0.56667 -2.5,1.5 0,1.11111 -1.16667,1.5 -4.5,1.5 -3.33333,0 -4.5,0.38889 -4.5,1.5 0,1.08333 -1.11111,1.5 -4,1.5 -2.88889,0 -4,-0.41667 -4,-1.5 0,-0.93333 -0.94444,-1.5 -2.5,-1.5 -1.55556,0 -2.5,-0.56667 -2.5,-1.5 0,-0.825 -0.675,-1.5 -1.5,-1.5 -0.93333,0 -1.5,-0.94444 -1.5,-2.5 0,-1.55556 -0.56667,-2.5 -1.5,-2.5 -0.825,0 -1.5,-0.675 -1.5,-1.5 0,-0.825 -0.45,-1.5 -1,-1.5 -0.55,0 -1,-1.35 -1,-3 0,-2 -0.5,-3 -1.5,-3 -0.93333,0 -1.5,-0.94444 -1.5,-2.5 0,-1.55556 -0.56667,-2.5 -1.5,-2.5 -1.08333,0 -1.5,-1.11111 -1.5,-4 0,-2.88889 -0.41667,-4 -1.5,-4 -1,0 -1.5,-1 -1.5,-3 0,-1.65 -0.45,-3 -1,-3 -0.55,0 -1,-1.8 -1,-4 0,-2.88889 -0.41667,-4 -1.5,-4 -1.15152,0 -1.5,-1.27778 -1.5,-5.5 0,-4.22222 -0.34848,-5.5 -1.5,-5.5 -1.08333,0 -1.5,-1.11111 -1.5,-4 0,-2.88889 -0.41667,-4 -1.5,-4 -1.08333,0 -1.5,-1.11111 -1.5,-4 0,-2.2 -0.45,-4 -1,-4 -0.55,0 -1,-2.025 -1,-4.5 0,-3.33333 -0.38889,-4.5 -1.5,-4.5 -1.08333,0 -1.5,-1.11111 -1.5,-4 0,-2.88889 -0.41667,-4 -1.5,-4 -1.08333,0 -1.5,-1.11111 -1.5,-4 0,-2.88889 -0.41667,-4 -1.5,-4 -1.08333,0 -1.5,-1.11111 -1.5,-4 0,-2.2 -0.45,-4 -1,-4 -0.55,0 -1,-1.8 -1,-4 0,-2.88889 -0.41667,-4 -1.5,-4 -1.15152,0 -1.5,-1.27778 -1.5,-5.5 0,-4.22222 -0.34848,-5.5 -1.5,-5.5 -1,0 -1.5,-1 -1.5,-3 0,-2 -0.5,-3 -1.5,-3 -0.825,0 -1.5,-0.675 -1.5,-1.5 0,-0.93333 -0.94444,-1.5 -2.5,-1.5 -2.36364,0 -2.5,0.3 -2.5,5.5 0,4.22222 0.34848,5.5 1.5,5.5 1.11111,0 1.5,1.16667 1.5,4.5 0,2.475 0.45,4.5 1,4.5 0.55,0 1,2.475 1,5.5 0,4.22222 0.34848,5.5 1.5,5.5 1.13333,0 1.5,1.22222 1.5,5 0,3.77778 0.36667,5 1.5,5 1.15152,0 1.5,1.27778 1.5,5.5 0,4.22222 0.34848,5.5 1.5,5.5 1.11111,0 1.5,1.16667 1.5,4.5 0,2.475 0.45,4.5 1,4.5 0.55,0 1,2.475 1,5.5 0,4.22222 0.34848,5.5 1.5,5.5 1.08333,0 1.5,1.11111 1.5,4 0,2.88889 0.41667,4 1.5,4 1.15152,0 1.5,1.27778 1.5,5.5 0,4.22222 0.34848,5.5 1.5,5.5 1.08333,0 1.5,1.11111 1.5,4 0,2.2 0.45,4 1,4 0.55,0 1,2.475 1,5.5 0,4.22222 0.34848,5.5 1.5,5.5 1.15152,0 1.5,1.27778 1.5,5.5 0,4.22222 0.34848,5.5 1.5,5.5 1.08333,0 1.5,1.11111 1.5,4 0,2.88889 0.41667,4 1.5,4 1.08333,0 1.5,1.11111 1.5,4 0,2.2 0.45,4 1,4 0.55,0 1,2.475 1,5.5 0,4.22222 0.34848,5.5 1.5,5.5 1.15152,0 1.5,1.27778 1.5,5.5 0,4.22222 0.34848,5.5 1.5,5.5 1.11111,0 1.5,1.16667 1.5,4.5 0,3.33333 0.38889,4.5 1.5,4.5 1.15152,0 1.5,1.27778 1.5,5.5 0,3.025 0.45,5.5 1,5.5 0.55,0 1,1.8 1,4 0,2.88889 0.41667,4 1.5,4 1.08333,0 1.5,1.11111 1.5,4 0,2.88889 0.41667,4 1.5,4 0.825,0 1.5,0.675 1.5,1.5 0,1.30159 -4.16667,1.5 -31.5,1.5 -20.33333,0 -31.5,0.3545 -31.5,1 0,0.55 -0.675,1 -1.5,1 -1.32362,0 -1.5,12.11111 -1.5,103 0,90.88889 -0.17638,103 -1.5,103 -1.08333,0 -1.5,1.11111 -1.5,4 0,2.88889 -0.41667,4 -1.5,4 -0.825,0 -1.5,0.675 -1.5,1.5 0,0.825 -0.45,1.5 -1,1.5 -0.55,0 -1,0.675 -1,1.5 0,0.825 -0.675,1.5 -1.5,1.5 -0.825,0 -1.5,0.45 -1.5,1 0,0.55 -0.675,1 -1.5,1 -0.825,0 -1.5,0.675 -1.5,1.5 0,0.93333 -0.94444,1.5 -2.5,1.5 -1.55556,0 -2.5,0.56667 -2.5,1.5 0,1.21569 -1.61111,1.5 -8.5,1.5 -6.88889,0 -8.5,-0.28431 -8.5,-1.5 0,-1.08333 -1.11111,-1.5 -4,-1.5 -2.88889,0 -4,-0.41667 -4,-1.5 0,-0.825 -0.48214,-1.5 -1.07143,-1.5 C 169.02027,654 167,651.20835 167,648.57143 167,646.95238 166.44444,646 165.5,646 c -0.93333,0 -1.5,-0.94444 -1.5,-2.5 0,-1.55556 -0.56667,-2.5 -1.5,-2.5 -1.32348,0 -1.5,-11.94444 -1.5,-101.5 0,-89.55556 -0.17652,-101.5 -1.5,-101.5 -1,0 -1.5,-1 -1.5,-3 0,-2.53333 -0.38889,-3 -2.5,-3 -1.55556,0 -2.5,0.56667 -2.5,1.5 0,0.825 -0.675,1.5 -1.5,1.5 -1.32362,0 -1.5,12.11111 -1.5,103 0,90.88889 -0.17638,103 -1.5,103 -0.93333,0 -1.5,0.94444 -1.5,2.5 0,1.375 -0.45,2.5 -1,2.5 -0.55,0 -1,1.35 -1,3 0,2 -0.5,3 -1.5,3 -0.825,0 -1.5,0.45 -1.5,1 0,0.55 -0.675,1 -1.5,1 -0.825,0 -1.5,0.675 -1.5,1.5 0,0.93333 -0.94444,1.5 -2.5,1.5 -1.55556,0 -2.5,0.56667 -2.5,1.5 0,1.24242 -1.88889,1.5 -11,1.5 -9.11111,0 -11,-0.25758 -11,-1.5 0,-1.08333 -1.11111,-1.5 -4,-1.5 -2.88889,0 -4,-0.41667 -4,-1.5 0,-0.825 -0.675,-1.5 -1.5,-1.5 -0.93333,0 -1.5,-0.94444 -1.5,-2.5 0,-1.55556 -0.56667,-2.5 -1.5,-2.5 -1,0 -1.5,-1 -1.5,-3 0,-2 -0.5,-3 -1.5,-3 C 95.176184,643 95,630.65873 95,537.92857 95,448.2 94.791396,432.64854 93.571429,431.42857 92.394636,430.25178 86.666667,430 61.071429,430 L 30,430 l 0,-3 c 0,-1.65 0.45,-3 1,-3 0.55,0 1,-1.8 1,-4 0,-2.88889 0.416667,-4 1.5,-4 1.083333,0 1.5,-1.11111 1.5,-4 0,-2.88889 0.416667,-4 1.5,-4 1.083333,0 1.5,-1.11111 1.5,-4 0,-2.88889 0.416667,-4 1.5,-4 1.111111,0 1.5,-1.16667 1.5,-4.5 0,-2.475 0.45,-4.5 1,-4.5 0.55,0 1,-1.8 1,-4 0,-2.88889 0.416667,-4 1.5,-4 1.083333,0 1.5,-1.11111 1.5,-4 0,-2.88889 0.416667,-4 1.5,-4 1.083333,0 1.5,-1.11111 1.5,-4 0,-2.88889 0.416667,-4 1.5,-4 1.111111,0 1.5,-1.16667 1.5,-4.5 0,-2.475 0.45,-4.5 1,-4.5 0.55,0 1,-1.8 1,-4 0,-2.88889 0.416667,-4 1.5,-4 1.151515,0 1.5,-1.27778 1.5,-5.5 0,-4.22222 0.348485,-5.5 1.5,-5.5 1.083333,0 1.5,-1.11111 1.5,-4 0,-2.88889 0.416667,-4 1.5,-4 1.083333,0 1.5,-1.11111 1.5,-4 0,-2.2 0.45,-4 1,-4 0.55,0 1,-1.8 1,-4 0,-2.88889 0.416667,-4 1.5,-4 1.111111,0 1.5,-1.16667 1.5,-4.5 0,-3.33333 0.388889,-4.5 1.5,-4.5 1.083333,0 1.5,-1.11111 1.5,-4 0,-2.88889 0.416667,-4 1.5,-4 1.083333,0 1.5,-1.11111 1.5,-4 0,-2.2 0.45,-4 1,-4 0.55,0 1,-2.475 1,-5.5 0,-4.22222 0.348485,-5.5 1.5,-5.5 1.083333,0 1.5,-1.11111 1.5,-4 0,-2.88889 0.416667,-4 1.5,-4 1.083333,0 1.5,-1.11111 1.5,-4 0,-2.2 0.45,-4 1,-4 0.55,0 1,-2.475 1,-5.5 0,-4.22222 0.348485,-5.5 1.5,-5.5 1,0 1.5,-1 1.5,-3 0,-2 0.5,-3 1.5,-3 1.151515,0 1.5,-1.27778 1.5,-5.5 0,-5.44444 -0.0303,-5.5 -3,-5.5 -2,0 -3,0.5 -3,1.5 0,0.825 -0.45,1.5 -1,1.5 -0.55,0 -1,0.675 -1,1.5 0,0.825 -0.675,1.5 -1.5,1.5 -1.083333,0 -1.5,1.11111 -1.5,4 0,2.88889 -0.416667,4 -1.5,4 -1.083333,0 -1.5,1.11111 -1.5,4 0,2.2 -0.45,4 -1,4 -0.55,0 -1,1.8 -1,4 0,2.88889 -0.416667,4 -1.5,4 -1.083333,0 -1.5,1.11111 -1.5,4 0,2.88889 -0.416667,4 -1.5,4 -1.111111,0 -1.5,1.16667 -1.5,4.5 0,3.33333 -0.388889,4.5 -1.5,4.5 -1.083333,0 -1.5,1.11111 -1.5,4 0,2.2 -0.45,4 -1,4 -0.55,0 -1,1.8 -1,4 0,2.88889 -0.416667,4 -1.5,4 -1.083333,0 -1.5,1.11111 -1.5,4 0,2.88889 -0.416667,4 -1.5,4 -1.111111,0 -1.5,1.16667 -1.5,4.5 0,3.33333 -0.388889,4.5 -1.5,4.5 -1.083333,0 -1.5,1.11111 -1.5,4 0,2.2 -0.45,4 -1,4 -0.55,0 -1,1.125 -1,2.5 0,1.55556 -0.566667,2.5 -1.5,2.5 -1.111111,0 -1.5,1.16667 -1.5,4.5 0,3.33333 -0.388889,4.5 -1.5,4.5 -0.825,0 -1.5,0.45 -1.5,1 0,0.55 -0.675,1 -1.5,1 -1,0 -1.5,1 -1.5,3 0,1.65 -0.45,3 -1,3 -0.55,0 -1,1.125 -1,2.5 0,1.55556 -0.566667,2.5 -1.5,2.5 -0.825,0 -1.5,0.675 -1.5,1.5 0,0.825 -0.675,1.5 -1.5,1.5 -0.933333,0 -1.5,0.94444 -1.5,2.5 0,1.55556 -0.566667,2.5 -1.5,2.5 -0.825,0 -1.5,0.675 -1.5,1.5 0,0.825 -0.45,1.5 -1,1.5 -0.55,0 -1,0.675 -1,1.5 0,1 -1,1.5 -3,1.5 -2,0 -3,0.5 -3,1.5 0,1.19048 -1.444444,1.5 -7,1.5 -5.555556,0 -7,-0.30952 -7,-1.5 C 10,364.56667 9.0555556,364 7.5,364 5.9444444,364 5,363.43333 5,362.5 5,361.675 4.325,361 3.5,361 2.5666667,361 2,360.05556 2,358.5 2,357.125 1.55,356 1,356 c -0.59649123,0 -1,-3.83333 -1,-9.5 0,-5.66667 0.40350877,-9.5 1,-9.5 0.55,0 1,-2.475 1,-5.5 0,-4.22222 0.3484848,-5.5 1.5,-5.5 1.1111111,0 1.5,-1.16667 1.5,-4.5 0,-3.33333 0.3888889,-4.5 1.5,-4.5 0.9333333,0 1.5,-0.94444 1.5,-2.5 0,-1.375 0.45,-2.5 1,-2.5 0.55,0 1,-1.8 1,-4 0,-2.88889 0.416667,-4 1.5,-4 1.111111,0 1.5,-1.16667 1.5,-4.5 0,-3.33333 0.388889,-4.5 1.5,-4.5 1.083333,0 1.5,-1.11111 1.5,-4 0,-2.88889 0.416667,-4 1.5,-4 1.083333,0 1.5,-1.11111 1.5,-4 0,-2.2 0.45,-4 1,-4 0.55,0 1,-1.8 1,-4 0,-2.88889 0.416667,-4 1.5,-4 1.083333,0 1.5,-1.11111 1.5,-4 0,-2.88889 0.416667,-4 1.5,-4 1.111111,0 1.5,-1.16667 1.5,-4.5 0,-3.33333 0.388889,-4.5 1.5,-4.5 1.083333,0 1.5,-1.11111 1.5,-4 0,-2.2 0.45,-4 1,-4 0.55,0 1,-1.8 1,-4 0,-2.88889 0.416667,-4 1.5,-4 1.083333,0 1.5,-1.11111 1.5,-4 0,-2.88889 0.416667,-4 1.5,-4 1.111111,0 1.5,-1.16667 1.5,-4.5 0,-3.33333 0.388889,-4.5 1.5,-4.5 1.083333,0 1.5,-1.11111 1.5,-4 0,-2.2 0.45,-4 1,-4 0.55,0 1,-1.8 1,-4 0,-2.88889 0.416667,-4 1.5,-4 1.083333,0 1.5,-1.11111 1.5,-4 0,-2.88889 0.416667,-4 1.5,-4 1.083333,0 1.5,-1.11111 1.5,-4 0,-2.88889 0.416667,-4 1.5,-4 1.111111,0 1.5,-1.16667 1.5,-4.5 0,-2.475 0.45,-4.5 1,-4.5 0.55,0 1,-1.8 1,-4 0,-2.88889 0.416667,-4 1.5,-4 1.083333,0 1.5,-1.11111 1.5,-4 0,-2.88889 0.416667,-4 1.5,-4 1.083333,0 1.5,-1.11111 1.5,-4 0,-2.88889 0.416667,-4 1.5,-4 1.111111,0 1.5,-1.16667 1.5,-4.5 0,-2.475 0.45,-4.5 1,-4.5 0.55,0 1,-1.125 1,-2.5 0,-1.55556 0.566667,-2.5 1.5,-2.5 0.825,0 1.5,-0.675 1.5,-1.5 0,-0.825 0.675,-1.5 1.5,-1.5 0.825,0 1.5,-0.675 1.5,-1.5 0,-0.825 0.482143,-1.5 1.071429,-1.5 C 73.455905,136 76,133.45591 76,132.07143 76,131.48214 77.35,131 79,131 c 2,0 3,-0.5 3,-1.5 0,-0.825 0.45,-1.5 1,-1.5 0.55,0 1,-0.675 1,-1.5 0,-1.11111 1.166667,-1.5 4.5,-1.5 2.475,0 4.5,-0.45 4.5,-1 0,-0.65707 23.83333,-1 69.5,-1 45.66667,0 69.5,0.34293 69.5,1 0,0.55 1.35,1 3,1 2,0 3,0.5 3,1.5 0,0.825 0.675,1.5 1.5,1.5 0.825,0 1.5,0.675 1.5,1.5 0,0.825 0.45,1.5 1,1.5 0.55,0 1,0.675 1,1.5 0,0.825 0.675,1.5 1.5,1.5 0.825,0 1.5,0.45 1.5,1 0,0.55 0.675,1 1.5,1 0.825,0 1.5,0.675 1.5,1.5 0,0.825 0.675,1.5 1.5,1.5 1,0 1.5,1 1.5,3 0,1.65 0.45,3 1,3 0.55,0 1,1.125 1,2.5 0,1.55556 0.56667,2.5 1.5,2.5 1.08333,0 1.5,1.11111 1.5,4 0,2.88889 0.41667,4 1.5,4 1.11111,0 1.5,1.16667 1.5,4.5 0,3.33333 0.38889,4.5 1.5,4.5 1.08333,0 1.5,1.11111 1.5,4 0,2.2 0.45,4 1,4 0.55,0 1,1.8 1,4 0,2.88889 0.41667,4 1.5,4 1.08333,0 1.5,1.11111 1.5,4 0,2.88889 0.41667,4 1.5,4 1.08333,0 1.5,1.11111 1.5,4 0,2.88889 0.41667,4 1.5,4 1.11111,0 1.5,1.16667 1.5,4.5 0,2.475 0.45,4.5 1,4.5 0.55,0 1,1.8 1,4 0,2.88889 0.41667,4 1.5,4 1.08333,0 1.5,1.11111 1.5,4 0,2.88889 0.41667,4 1.5,4 1.08333,0 1.5,1.11111 1.5,4 0,2.2 0.45,4 1,4 0.55,0 1,2.025 1,4.5 0,3.33333 0.38889,4.5 1.5,4.5 1.08333,0 1.5,1.11111 1.5,4 0,2.88889 0.41667,4 1.5,4 1.08333,0 1.5,1.11111 1.5,4 0,2.88889 0.41667,4 1.5,4 1.08333,0 1.5,1.11111 1.5,4 0,2.2 0.45,4 1,4 0.55,0 1,1.8 1,4 0,2.88889 0.41667,4 1.5,4 0.825,0 1.5,-0.45 1.5,-1 0,-0.55 0.675,-1 1.5,-1 1.08333,0 1.5,-1.11111 1.5,-4 0,-2.88889 0.41667,-4 1.5,-4 1.11111,0 1.5,-1.16667 1.5,-4.5 0,-2.475 0.45,-4.5 1,-4.5 0.55,0 1,-1.8 1,-4 0,-2.88889 0.41667,-4 1.5,-4 1.08333,0 1.5,-1.11111 1.5,-4 0,-2.88889 0.41667,-4 1.5,-4 1.08333,0 1.5,-1.11111 1.5,-4 0,-2.88889 0.41667,-4 1.5,-4 1.11111,0 1.5,-1.16667 1.5,-4.5 0,-2.475 0.45,-4.5 1,-4.5 0.55,0 1,-1.8 1,-4 0,-2.88889 0.41667,-4 1.5,-4 1.08333,0 1.5,-1.11111 1.5,-4 0,-2.88889 0.41667,-4 1.5,-4 1.08333,0 1.5,-1.11111 1.5,-4 0,-2.88889 0.41667,-4 1.5,-4 1.08333,0 1.5,-1.11111 1.5,-4 0,-2.2 0.45,-4 1,-4 0.55,0 1,-2.025 1,-4.5 0,-3.33333 0.38889,-4.5 1.5,-4.5 1.08333,0 1.5,-1.11111 1.5,-4 0,-2.88889 0.41667,-4 1.5,-4 1.08333,0 1.5,-1.11111 1.5,-4 0,-2.88889 0.41667,-4 1.5,-4 1.08333,0 1.5,-1.11111 1.5,-4 0,-2.2 0.45,-4 1,-4 0.55,0 1,-2.025 1,-4.5 0,-3.33333 0.38889,-4.5 1.5,-4.5 0.93333,0 1.5,-0.94444 1.5,-2.5 0,-1.55556 0.56667,-2.5 1.5,-2.5 0.825,0 1.5,-0.675 1.5,-1.5 0,-0.825 0.45,-1.5 1,-1.5 0.55,0 1,-0.675 1,-1.5 0,-0.825 0.675,-1.5 1.5,-1.5 0.825,0 1.5,-0.45 1.5,-1 0,-0.55 0.675,-1 1.5,-1 0.825,0 1.5,-0.675 1.5,-1.5 0,-0.93333 0.94444,-1.5 2.5,-1.5 1.55556,0 2.5,-0.56667 2.5,-1.5 0,-0.825 0.675,-1.5 1.5,-1.5 0.825,0 1.5,-0.675 1.5,-1.5 0,-1.08333 1.11111,-1.5 4,-1.5 2.2,0 4,-0.45 4,-1 0,-0.65591 21.33333,-1 62,-1 40.66667,0 62,0.34409 62,1 0,0.55 1.8,1 4,1 2.88889,0 4,0.41667 4,1.5 0,0.825 0.675,1.5 1.5,1.5 0.825,0 1.5,0.675 1.5,1.5 0,0.93333 0.94444,1.5 2.5,1.5 1.55556,0 2.5,0.56667 2.5,1.5 0,0.825 0.675,1.5 1.5,1.5 0.825,0 1.5,0.45 1.5,1 0,0.55 0.675,1 1.5,1 0.825,0 1.5,0.675 1.5,1.5 0,0.825 0.45,1.5 1,1.5 0.55,0 1,0.675 1,1.5 0,0.825 0.675,1.5 1.5,1.5 0.93333,0 1.5,0.94444 1.5,2.5 0,1.55556 0.56667,2.5 1.5,2.5 1.11111,0 1.5,1.16667 1.5,4.5 0,3.33333 0.38889,4.5 1.5,4.5 1.08333,0 1.5,1.11111 1.5,4 0,2.2 0.45,4 1,4 0.55,0 1,1.8 1,4 0,2.88889 0.41667,4 1.5,4 1.08333,0 1.5,1.11111 1.5,4 0,2.88889 0.41667,4 1.5,4 1.11111,0 1.5,1.16667 1.5,4.5 0,3.33333 0.38889,4.5 1.5,4.5 0.93333,0 1.5,0.94444 1.5,2.5 0,1.375 0.45,2.5 1,2.5 0.55,0 1,1.8 1,4 0,2.88889 0.41667,4 1.5,4 1.08333,0 1.5,1.11111 1.5,4 0,2.88889 0.41667,4 1.5,4 1.11111,0 1.5,1.16667 1.5,4.5 0,2.475 0.45,4.5 1,4.5 0.55,0 1,1.8 1,4 0,2.88889 0.41667,4 1.5,4 1.08333,0 1.5,1.11111 1.5,4 0,2.88889 0.41667,4 1.5,4 1.08333,0 1.5,1.11111 1.5,4 0,2.88889 0.41667,4 1.5,4 1.11111,0 1.5,1.16667 1.5,4.5 0,2.475 0.45,4.5 1,4.5 0.55,0 1,1.8 1,4 0,2.88889 0.41667,4 1.5,4 1.08333,0 1.5,1.11111 1.5,4 0,2.88889 0.41667,4 1.5,4 1.08333,0 1.5,1.11111 1.5,4 0,2.88889 0.41667,4 1.5,4 1.08333,0 1.5,1.11111 1.5,4 0,3.6 0.25,4 2.5,4 2.25,0 2.5,-0.4 2.5,-4 0,-2.88889 0.41667,-4 1.5,-4 1.08333,0 1.5,-1.11111 1.5,-4 0,-2.88889 0.41667,-4 1.5,-4 1.08333,0 1.5,-1.11111 1.5,-4 0,-2.2 0.45,-4 1,-4 0.55,0 1,-1.8 1,-4 0,-2.88889 0.41667,-4 1.5,-4 1.11111,0 1.5,-1.16667 1.5,-4.5 0,-3.33333 0.38889,-4.5 1.5,-4.5 1.08333,0 1.5,-1.11111 1.5,-4 0,-2.88889 0.41667,-4 1.5,-4 1.08333,0 1.5,-1.11111 1.5,-4 0,-2.2 0.45,-4 1,-4 0.55,0 1,-1.8 1,-4 0,-2.88889 0.41667,-4 1.5,-4 1,0 1.5,-1 1.5,-3 0,-2 0.5,-3 1.5,-3 1.08333,0 1.5,-1.11111 1.5,-4 0,-2.88889 0.41667,-4 1.5,-4 1.08333,0 1.5,-1.11111 1.5,-4 0,-2.2 0.45,-4 1,-4 0.55,0 1,-1.8 1,-4 0,-2.88889 0.41667,-4 1.5,-4 1.11111,0 1.5,-1.16667 1.5,-4.5 0,-3.33333 0.38889,-4.5 1.5,-4.5 1.08333,0 1.5,-1.11111 1.5,-4 0,-2.2 0.45,-4 1,-4 0.55,0 1,-1.8 1,-4 0,-2.88889 0.41667,-4 1.5,-4 1.08333,0 1.5,-1.11111 1.5,-4 0,-2.88889 0.41667,-4 1.5,-4 1.11111,0 1.5,-1.16667 1.5,-4.5 0,-3.33333 0.38889,-4.5 1.5,-4.5 0.93333,0 1.5,-0.94444 1.5,-2.5 0,-1.375 0.45,-2.5 1,-2.5 0.55,0 1,-0.675 1,-1.5 0,-0.825 0.675,-1.5 1.5,-1.5 0.825,0 1.5,-0.675 1.5,-1.5 0,-0.825 0.675,-1.5 1.5,-1.5 0.825,0 1.5,-0.45 1.5,-1 0,-0.55 0.675,-1 1.5,-1 0.825,0 1.5,-0.675 1.5,-1.5 0,-0.93333 0.94444,-1.5 2.5,-1.5 1.55556,0 2.5,-0.56667 2.5,-1.5 0,-0.825 0.675,-1.5 1.5,-1.5 0.825,0 1.5,-0.675 1.5,-1.5 0,-1.08333 1.11111,-1.5 4,-1.5 2.2,0 4,-0.45 4,-1 0,-0.64103 9.33333,-1 26,-1 22.44444,0 26,-0.20513 26,-1.5 0,-1.08333 -1.11111,-1.5 -4,-1.5 -2.2,0 -4,-0.45 -4,-1 0,-0.55 -1.35,-1 -3,-1 -2,0 -3,-0.5 -3,-1.5 0,-0.93333 -0.94444,-1.5 -2.5,-1.5 -1.55556,0 -2.5,-0.56667 -2.5,-1.5 0,-0.825 -0.675,-1.5 -1.5,-1.5 -0.825,0 -1.5,-0.48214 -1.5,-1.07143 C 676,109.54409 673.45591,107 672.07143,107 671.48214,107 671,106.325 671,105.5 c 0,-0.825 -0.675,-1.5 -1.5,-1.5 -0.825,0 -1.5,-0.675 -1.5,-1.5 0,-0.825 -0.675,-1.5 -1.5,-1.5 -0.825,0 -1.5,-0.48214 -1.5,-1.071429 C 665,98.544095 662.45591,96 661.07143,96 660.48214,96 660,94.65 660,93 c 0,-2 -0.5,-3 -1.5,-3 -0.93333,0 -1.5,-0.944444 -1.5,-2.5 0,-1.555556 -0.56667,-2.5 -1.5,-2.5 -1.15152,0 -1.5,-1.277778 -1.5,-5.5 0,-3.025 -0.45,-5.5 -1,-5.5 -0.60606,0 -1,-4.333333 -1,-11 0,-6.666667 0.39394,-11 1,-11 0.55,0 1,-2.475 1,-5.5 0,-4.222222 0.34848,-5.5 1.5,-5.5 1,0 1.5,-1 1.5,-3 0,-2 0.5,-3 1.5,-3 0.93333,0 1.5,-0.944444 1.5,-2.5 0,-1.555556 0.56667,-2.5 1.5,-2.5 0.94444,0 1.5,-0.952381 1.5,-2.571429 C 663,24.791646 665.02027,22 666.92857,22 667.51786,22 668,21.325 668,20.5 c 0,-0.825 0.675,-1.5 1.5,-1.5 0.825,0 1.5,-0.675 1.5,-1.5 0,-0.933333 0.94444,-1.5 2.5,-1.5 1.55556,0 2.5,-0.566667 2.5,-1.5 0,-0.825 0.675,-1.5 1.5,-1.5 0.825,0 1.5,-0.45 1.5,-1 0,-0.55 1.125,-1 2.5,-1 1.55556,0 2.5,-0.566667 2.5,-1.5 0,-1 1,-1.5 3,-1.5 2,0 3,-0.5 3,-1.5 0,-1.0833333 1.11111,-1.5 4,-1.5 2.88889,0 4,-0.4166667 4,-1.5 0,-1.2666667 2.33333,-1.5 15,-1.5 12.66667,0 15,0.2333333 15,1.5 0,1.1111111 1.16667,1.5 4.5,1.5 3.33333,0 4.5,0.3888889 4.5,1.5 0,0.9333333 0.94444,1.5 2.5,1.5 1.55556,0 2.5,0.5666667 2.5,1.5 0,0.933333 0.94444,1.5 2.5,1.5 1.375,0 2.5,0.45 2.5,1 0,0.55 0.675,1 1.5,1 0.825,0 1.5,0.675 1.5,1.5 0,0.825 0.675,1.5 1.5,1.5 0.825,0 1.5,0.675 1.5,1.5 0,0.825 0.675,1.5 1.5,1.5 0.825,0 1.5,0.482143 1.5,1.071429 C 756,21.455905 758.54409,24 759.92857,24 760.51786,24 761,24.675 761,25.5 c 0,0.825 0.675,1.5 1.5,1.5 0.825,0 1.5,0.675 1.5,1.5 0,0.825 0.675,1.5 1.5,1.5 0.93333,0 1.5,0.944444 1.5,2.5 0,1.375 0.45,2.5 1,2.5 0.55,0 1,2.025 1,4.5 0,3.333333 0.38889,4.5 1.5,4.5 1.17949,0 1.5,1.388889 1.5,6.5 0,5.111111 0.32051,6.5 1.5,6.5 1.08333,0 1.5,1.111111 1.5,4 0,2.888889 -0.41667,4 -1.5,4 -1.21569,0 -1.5,1.611111 -1.5,8.5 0,6.888889 -0.28431,8.5 -1.5,8.5 -0.93333,0 -1.5,0.944444 -1.5,2.5 0,1.375 -0.45,2.5 -1,2.5 -0.55,0 -1,1.35 -1,3 0,2 -0.5,3 -1.5,3 -0.93333,0 -1.5,0.944444 -1.5,2.5 0,1.555556 -0.56667,2.5 -1.5,2.5 -0.825,0 -1.5,0.675 -1.5,1.5 0,0.825 -0.675,1.5 -1.5,1.5 -0.825,0 -1.5,0.675 -1.5,1.5 0,0.825 -0.45,1.5 -1,1.5 -0.55,0 -1,0.675 -1,1.5 0,0.825 -0.675,1.5 -1.5,1.5 -0.825,0 -1.5,0.45 -1.5,1 0,0.55 -0.675,1 -1.5,1 -0.825,0 -1.5,0.675 -1.5,1.5 0,0.93333 -0.94444,1.5 -2.5,1.5 -1.55556,0 -2.5,0.56667 -2.5,1.5 0,1 -1,1.5 -3,1.5 -2,0 -3,0.5 -3,1.5 0,0.93333 -0.94444,1.5 -2.5,1.5 -1.375,0 -2.5,0.45 -2.5,1 0,0.55 -2.475,1 -5.5,1 -4.22222,0 -5.5,0.34848 -5.5,1.5 0,1.30516 4.61111,1.5 35.5,1.5 23,0 35.5,0.35211 35.5,1 0,0.55 0.675,1 1.5,1 0.825,0 1.5,0.675 1.5,1.5 0,0.93333 0.94444,1.5 2.5,1.5 1.55556,0 2.5,0.56667 2.5,1.5 0,0.825 0.675,1.5 1.5,1.5 0.825,0 1.5,0.675 1.5,1.5 0,0.825 0.48214,1.5 1.07143,1.5 1.38448,0 3.92857,2.54409 3.92857,3.92857 0,0.58929 0.675,1.07143 1.5,1.07143 1,0 1.5,1 1.5,3 0,2 0.5,3 1.5,3 1.08333,0 1.5,1.11111 1.5,4 0,2.88889 0.41667,4 1.5,4 1.08333,0 1.5,1.11111 1.5,4 0,2.2 0.45,4 1,4 0.55,0 1,1.8 1,4 0,2.88889 0.41667,4 1.5,4 1.11111,0 1.5,1.16667 1.5,4.5 0,3.33333 0.38889,4.5 1.5,4.5 1.08333,0 1.5,1.11111 1.5,4 0,2.88889 0.41667,4 1.5,4 1.08333,0 1.5,1.11111 1.5,4 0,2.2 0.45,4 1,4 0.55,0 1,1.8 1,4 0,2.88889 0.41667,4 1.5,4 1.08333,0 1.5,1.11111 1.5,4 0,2.88889 0.41667,4 1.5,4 1.11111,0 1.5,1.16667 1.5,4.5 0,3.33333 0.38889,4.5 1.5,4.5 1.08333,0 1.5,1.11111 1.5,4 0,2.2 0.45,4 1,4 0.55,0 1,1.8 1,4 0,2.88889 0.41667,4 1.5,4 1.08333,0 1.5,1.11111 1.5,4 0,2.88889 0.41667,4 1.5,4 1.11111,0 1.5,1.16667 1.5,4.5 0,3.33333 0.38889,4.5 1.5,4.5 1.08333,0 1.5,1.11111 1.5,4 0,2.2 0.45,4 1,4 0.55,0 1,1.8 1,4 0,2.88889 0.41667,4 1.5,4 1.08333,0 1.5,1.11111 1.5,4 0,2.88889 0.41667,4 1.5,4 1.08333,0 1.5,1.11111 1.5,4 0,2.88889 0.41667,4 1.5,4 1.11111,0 1.5,1.16667 1.5,4.5 0,2.475 0.45,4.5 1,4.5 0.55,0 1,1.8 1,4 0,2.88889 0.41667,4 1.5,4 1.08333,0 1.5,1.11111 1.5,4 0,2.88889 0.41667,4 1.5,4 1,0 1.5,1 1.5,3 0,2 0.5,3 1.5,3 1.08333,0 1.5,1.11111 1.5,4 0,2.2 0.45,4 1,4 0.55,0 1,2.475 1,5.5 0,4.22222 0.34848,5.5 1.5,5.5 1.22807,0 1.5,1.72222 1.5,9.5 0,7.77778 -0.27193,9.5 -1.5,9.5 -0.93333,0 -1.5,0.94444 -1.5,2.5 0,1.375 -0.45,2.5 -1,2.5 -0.55,0 -1,0.675 -1,1.5 0,1 -1,1.5 -3,1.5 -2,0 -3,0.5 -3,1.5 0,1.19048 -1.44444,1.5 -7,1.5 -5.55556,0 -7,-0.30952 -7,-1.5 0,-0.93333 -0.94444,-1.5 -2.5,-1.5 -1.55556,0 -2.5,-0.56667 -2.5,-1.5 0,-0.825 -0.675,-1.5 -1.5,-1.5 -0.825,0 -1.5,-0.45 -1.5,-1 0,-0.55 -0.675,-1 -1.5,-1 -1,0 -1.5,-1 -1.5,-3 0,-1.65 -0.45,-3 -1,-3 -0.55,0 -1,-0.675 -1,-1.5 0,-0.825 -0.675,-1.5 -1.5,-1.5 -0.93333,0 -1.5,-0.94444 -1.5,-2.5 0,-1.55556 -0.56667,-2.5 -1.5,-2.5 -0.93333,0 -1.5,-0.94444 -1.5,-2.5 0,-1.55556 -0.56667,-2.5 -1.5,-2.5 -0.825,0 -1.5,-0.675 -1.5,-1.5 0,-0.825 -0.45,-1.5 -1,-1.5 -0.55,0 -1,-1.8 -1,-4 0,-2.88889 -0.41667,-4 -1.5,-4 -1,0 -1.5,-1 -1.5,-3 0,-2 -0.5,-3 -1.5,-3 -1.08333,0 -1.5,-1.11111 -1.5,-4 0,-2.88889 -0.41667,-4 -1.5,-4 -1.08333,0 -1.5,-1.11111 -1.5,-4 0,-2.2 -0.45,-4 -1,-4 -0.55,0 -1,-2.025 -1,-4.5 0,-3.33333 -0.38889,-4.5 -1.5,-4.5 -1.08333,0 -1.5,-1.11111 -1.5,-4 0,-2.88889 -0.41667,-4 -1.5,-4 -1.08333,0 -1.5,-1.11111 -1.5,-4 0,-2.88889 -0.41667,-4 -1.5,-4 -1.08333,0 -1.5,-1.11111 -1.5,-4 0,-2.2 -0.45,-4 -1,-4 -0.55,0 -1,-1.8 -1,-4 0,-2.88889 -0.41667,-4 -1.5,-4 -1.11111,0 -1.5,-1.16667 -1.5,-4.5 0,-3.33333 -0.38889,-4.5 -1.5,-4.5 -1.08333,0 -1.5,-1.11111 -1.5,-4 0,-2.2 -0.45,-4 -1,-4 -0.55,0 -1,-1.8 -1,-4 0,-2.88889 -0.41667,-4 -1.5,-4 -0.825,0 -1.5,-0.675 -1.5,-1.5 0,-0.825 -0.675,-1.5 -1.5,-1.5 -0.825,0 -1.5,-0.675 -1.5,-1.5 0,-0.93333 -0.94444,-1.5 -2.5,-1.5 -2.11111,0 -2.5,0.46667 -2.5,3 0,2 -0.5,3 -1.5,3 -1.32524,0 -1.5,14.38889 -1.5,123.5 0,109.11111 0.17476,123.5 1.5,123.5 1.31982,0 1.5,8.88889 1.5,74 0,65.11111 -0.18018,74 -1.5,74 -1.13333,0 -1.5,1.22222 -1.5,5 0,3.77778 -0.36667,5 -1.5,5 -1,0 -1.5,1 -1.5,3 0,2 -0.5,3 -1.5,3 -0.93333,0 -1.5,0.94444 -1.5,2.5 0,1.375 -0.45,2.5 -1,2.5 -0.55,0 -1,0.675 -1,1.5 0,1 -1,1.5 -3,1.5 -2,0 -3,0.5 -3,1.5 0,1.08333 -1.11111,1.5 -4,1.5 -2.88889,0 -4,0.41667 -4,1.5 0,1.24242 -1.88889,1.5 -11,1.5 -9.11111,0 -11,-0.25758 -11,-1.5 0,-1.08333 -1.11111,-1.5 -4,-1.5 -2.88889,0 -4,-0.41667 -4,-1.5 0,-0.825 -0.675,-1.5 -1.5,-1.5 -0.825,0 -1.5,-0.675 -1.5,-1.5 0,-0.825 -0.48214,-1.5 -1.07143,-1.5 -0.58928,0 -1.71428,-0.64286 -2.5,-1.42857 C 726.64286,651.78571 726,650.66071 726,650.07143 726,649.48214 725.325,649 724.5,649 c -1.08333,0 -1.5,-1.11111 -1.5,-4 0,-2.88889 -0.41667,-4 -1.5,-4 -1.32333,0 -1.5,-11.77778 -1.5,-100 0,-88.22222 -0.17667,-100 -1.5,-100 -1,0 -1.5,-1 -1.5,-3 0,-1.65 -0.45,-3 -1,-3 -0.55,0 -1,1.35 -1,3 0,2 -0.5,3 -1.5,3 -1.32302,0 -1.5,11.44444 -1.5,97 0,85.55556 -0.17698,97 -1.5,97 -1.08333,0 -1.5,1.11111 -1.5,4 0,2.88889 -0.41667,4 -1.5,4 -0.825,0 -1.5,0.675 -1.5,1.5 0,0.825 0.675,1.5 1.5,1.5 0.825,0 1.5,0.675 1.5,1.5 0,0.93333 -0.94444,1.5 -2.5,1.5 -1.55556,0 -2.5,0.56667 -2.5,1.5 0,0.825 -0.675,1.5 -1.5,1.5 -0.825,0 -1.5,0.45 -1.5,1 0,0.55 -0.675,1 -1.5,1 -0.825,0 -1.5,0.675 -1.5,1.5 0,0.825 -0.675,1.5 -1.5,1.5 -0.825,0 -1.5,0.675 -1.5,1.5 0,0.93333 -0.94444,1.5 -2.5,1.5 -1.55556,0 -2.5,0.56667 -2.5,1.5 0,1.25333 -2.05556,1.5 -12.5,1.5 -10.44444,0 -12.5,-0.24667 -12.5,-1.5 z M 147,119 c 0,-0.55 -1.8,-1 -4,-1 -2.88889,0 -4,-0.41667 -4,-1.5 0,-0.93333 -0.94444,-1.5 -2.5,-1.5 -1.55556,0 -2.5,-0.56667 -2.5,-1.5 0,-1 -1,-1.5 -3,-1.5 -1.65,0 -3,-0.48214 -3,-1.07143 0,-0.58928 -0.64286,-1.71428 -1.42857,-2.5 C 125.78571,107.64286 124.66071,107 124.07143,107 123.48214,107 123,106.325 123,105.5 c 0,-1 -1,-1.5 -3,-1.5 -2.55556,0 -3,-0.38095 -3,-2.57143 C 117,98.791646 114.97973,96 113.07143,96 112.48214,96 112,95.325 112,94.5 c 0,-0.825 -0.675,-1.5 -1.5,-1.5 -1,0 -1.5,-1 -1.5,-3 0,-2 -0.5,-3 -1.5,-3 -0.93333,0 -1.5,-0.944444 -1.5,-2.5 0,-1.375 -0.45,-2.5 -1,-2.5 -0.55,0 -1,-2.475 -1,-5.5 0,-4.222222 -0.34848,-5.5 -1.5,-5.5 -1.22807,0 -1.5,-1.722222 -1.5,-9.5 0,-7.777778 0.27193,-9.5 1.5,-9.5 1.15152,0 1.5,-1.277778 1.5,-5.5 0,-3.025 0.45,-5.5 1,-5.5 0.55,0 1,-1.35 1,-3 0,-2 0.5,-3 1.5,-3 0.93333,0 1.5,-0.944444 1.5,-2.5 0,-1.555556 0.56667,-2.5 1.5,-2.5 1,0 1.5,-1 1.5,-3 0,-1.65 0.48214,-3 1.07143,-3 C 114.45591,24 117,21.455905 117,20.071429 117,19.482143 117.675,19 118.5,19 c 0.825,0 1.5,-0.675 1.5,-1.5 0,-0.825 0.675,-1.5 1.5,-1.5 0.825,0 1.5,-0.675 1.5,-1.5 0,-0.825 0.675,-1.5 1.5,-1.5 0.825,0 1.5,-0.45 1.5,-1 0,-0.55 1.125,-1 2.5,-1 1.55556,0 2.5,-0.566667 2.5,-1.5 0,-1 1,-1.5 3,-1.5 2,0 3,-0.5 3,-1.5 0,-0.9333333 0.94444,-1.5 2.5,-1.5 1.55556,0 2.5,-0.5666667 2.5,-1.5 0,-1.1515152 1.27778,-1.5 5.5,-1.5 3.025,0 5.5,-0.45 5.5,-1 0,-0.60606061 4.33333,-1 11,-1 6.66667,0 11,0.39393939 11,1 0,0.55 1.8,1 4,1 2.88889,0 4,0.4166667 4,1.5 0,1.0833333 1.11111,1.5 4,1.5 2.88889,0 4,0.4166667 4,1.5 0,0.825 0.675,1.5 1.5,1.5 0.825,0 1.5,0.675 1.5,1.5 0,0.944444 0.95238,1.5 2.57143,1.5 C 199.20835,11 202,13.02027 202,14.928571 202,15.517857 202.675,16 203.5,16 c 0.825,0 1.5,0.675 1.5,1.5 0,0.825 0.675,1.5 1.5,1.5 0.825,0 1.5,0.482143 1.5,1.071429 C 208,21.455905 210.54409,24 211.92857,24 212.51786,24 213,25.35 213,27 c 0,2 0.5,3 1.5,3 0.825,0 1.5,0.675 1.5,1.5 0,0.825 0.675,1.5 1.5,1.5 1.08333,0 1.5,1.111111 1.5,4 0,2.2 0.45,4 1,4 0.55,0 1,2.475 1,5.5 0,4.222222 0.34848,5.5 1.5,5.5 1.20833,0 1.5,1.555556 1.5,8 0,6.444444 -0.29167,8 -1.5,8 -1.19048,0 -1.5,1.444444 -1.5,7 0,4 -0.42857,7 -1,7 -0.55,0 -1,1.125 -1,2.5 0,1.555556 -0.56667,2.5 -1.5,2.5 -1,0 -1.5,1 -1.5,3 0,2 -0.5,3 -1.5,3 -0.825,0 -1.5,0.675 -1.5,1.5 0,0.825 -0.48214,1.5 -1.07143,1.5 C 210.02027,96 208,98.791646 208,101.42857 208,103.61905 207.55556,104 205,104 c -1.65,0 -3,0.48214 -3,1.07143 C 202,106.45591 199.45591,109 198.07143,109 197.48214,109 197,109.675 197,110.5 c 0,1 -1,1.5 -3,1.5 -2,0 -3,0.5 -3,1.5 0,0.93333 -0.94444,1.5 -2.5,1.5 -1.55556,0 -2.5,0.56667 -2.5,1.5 0,1.08333 -1.11111,1.5 -4,1.5 -2.2,0 -4,0.45 -4,1 0,0.62366 -5.83333,1 -15.5,1 -9.66667,0 -15.5,-0.37634 -15.5,-1 z m 277,0 c 0,-0.55 -1.8,-1 -4,-1 -2.88889,0 -4,-0.41667 -4,-1.5 0,-1 -1,-1.5 -3,-1.5 -2,0 -3,-0.5 -3,-1.5 0,-0.93333 -0.94444,-1.5 -2.5,-1.5 -1.55556,0 -2.5,-0.56667 -2.5,-1.5 0,-0.825 -0.48214,-1.5 -1.07143,-1.5 C 402.54409,109 400,106.45591 400,105.07143 400,104.48214 398.65,104 397,104 c -2.66667,0 -3,-0.33333 -3,-3 0,-1.65 -0.48214,-3 -1.07143,-3 C 391.54409,98 389,95.455905 389,94.071429 389,93.482143 388.325,93 387.5,93 c -1,0 -1.5,-1 -1.5,-3 0,-2 -0.5,-3 -1.5,-3 -0.93333,0 -1.5,-0.944444 -1.5,-2.5 0,-1.555556 -0.56667,-2.5 -1.5,-2.5 -1.15152,0 -1.5,-1.277778 -1.5,-5.5 0,-3.025 -0.45,-5.5 -1,-5.5 -0.59649,0 -1,-3.833333 -1,-9.5 0,-5.666667 0.40351,-9.5 1,-9.5 0.55,0 1,-2.475 1,-5.5 0,-4.222222 0.34848,-5.5 1.5,-5.5 1,0 1.5,-1 1.5,-3 0,-2 0.5,-3 1.5,-3 0.93333,0 1.5,-0.944444 1.5,-2.5 0,-1.555556 0.56667,-2.5 1.5,-2.5 0.94444,0 1.5,-0.952381 1.5,-2.571429 C 389,24.791646 391.02027,22 392.92857,22 393.51786,22 394,21.325 394,20.5 c 0,-0.825 0.675,-1.5 1.5,-1.5 0.825,0 1.5,-0.675 1.5,-1.5 0,-0.825 0.675,-1.5 1.5,-1.5 0.825,0 1.5,-0.482143 1.5,-1.071429 C 400,13.02027 402.79165,11 405.42857,11 407.04762,11 408,10.444444 408,9.5 408,8.5666667 408.94444,8 410.5,8 c 1.55556,0 2.5,-0.5666667 2.5,-1.5 0,-1 1,-1.5 3,-1.5 2,0 3,-0.5 3,-1.5 0,-1.1515152 1.27778,-1.5 5.5,-1.5 3.025,0 5.5,-0.45 5.5,-1 0,-0.60606061 4.33333,-1 11,-1 6.66667,0 11,0.39393939 11,1 0,0.55 1.8,1 4,1 2.88889,0 4,0.4166667 4,1.5 0,1.0833333 1.11111,1.5 4,1.5 2.88889,0 4,0.4166667 4,1.5 0,0.825 0.675,1.5 1.5,1.5 0.825,0 1.5,0.675 1.5,1.5 0,0.933333 0.94444,1.5 2.5,1.5 1.375,0 2.5,0.45 2.5,1 0,0.55 0.675,1 1.5,1 0.825,0 1.5,0.675 1.5,1.5 0,0.825 0.675,1.5 1.5,1.5 0.825,0 1.5,0.675 1.5,1.5 0,0.825 0.45,1.5 1,1.5 0.55,0 1,0.675 1,1.5 0,0.825 0.675,1.5 1.5,1.5 0.825,0 1.5,0.45 1.5,1 0,0.55 0.675,1 1.5,1 1,0 1.5,1 1.5,3 0,2 0.5,3 1.5,3 0.825,0 1.5,0.675 1.5,1.5 0,0.825 0.45,1.5 1,1.5 0.55,0 1,1.8 1,4 0,2.888889 0.41667,4 1.5,4 1.15152,0 1.5,1.277778 1.5,5.5 0,4.222222 0.34848,5.5 1.5,5.5 1.20833,0 1.5,1.555556 1.5,8 0,6.444444 -0.29167,8 -1.5,8 -1.19048,0 -1.5,1.444444 -1.5,7 0,5.555556 -0.30952,7 -1.5,7 -0.93333,0 -1.5,0.944444 -1.5,2.5 0,1.375 -0.45,2.5 -1,2.5 -0.55,0 -1,1.35 -1,3 0,2 -0.5,3 -1.5,3 -0.825,0 -1.5,0.675 -1.5,1.5 0,0.825 -0.675,1.5 -1.5,1.5 -0.825,0 -1.5,0.45 -1.5,1 0,0.55 -0.675,1 -1.5,1 -1,0 -1.5,1 -1.5,3 0,2.53333 -0.38889,3 -2.5,3 -1.55556,0 -2.5,0.56667 -2.5,1.5 0,0.825 -0.48214,1.5 -1.07143,1.5 C 476.54409,107 474,109.54409 474,110.92857 474,111.51786 472.65,112 471,112 c -2,0 -3,0.5 -3,1.5 0,0.93333 -0.94444,1.5 -2.5,1.5 -1.55556,0 -2.5,0.56667 -2.5,1.5 0,1.11111 -1.16667,1.5 -4.5,1.5 -2.475,0 -4.5,0.45 -4.5,1 0,0.62222 -5.66667,1 -15,1 -9.33333,0 -15,-0.37778 -15,-1 z"
       id="path3175"
       inkscape:connector-curvature="0" />
  </g>
</svg>
